<svg width="130" height="22" viewBox="0 0 130 22" fill="none" xmlns="http://www.w3.org/2000/svg">
<path d="M25.34 19.7762L25.3393 2.22848L30.1402 1.50372L32.9203 1.5039L32.9201 4.56896L28.4829 4.56867L28.4825 9.51142L32.92 7.27504L32.9197 10.6991L28.4823 12.9631L28.4823 20.4001L25.34 19.7762Z" fill="white"/>
<path d="M34.4913 4.12724C34.4914 2.44284 35.4286 1.50406 37.0271 1.50416L40.5273 1.50438C42.1258 1.50448 43.0904 2.44339 43.0902 4.12779L43.0902 4.59721L39.9206 6.2538L39.9207 4.54179L37.6332 4.54164L37.6329 9.37394L43.0901 6.55774L43.0894 18.0448C43.0893 19.7292 42.1246 20.668 40.5261 20.6679L37.0259 20.6677C35.4273 20.6676 34.4903 19.7287 34.4904 18.0443L34.4906 16.2494L37.6326 14.6204L37.6324 17.6303L39.9199 17.6304L39.9203 11.6107L34.4907 14.4546L34.4913 4.12724Z" fill="white"/>
<path d="M53.9095 1.50523L53.9085 17.6037L56.196 17.6038L56.197 1.50538L59.3665 1.50558L59.3654 17.9906C59.3653 19.8131 58.4833 20.669 56.6092 20.6689L54.1563 20.6688C53.0263 20.6687 52.3649 20.0059 52.365 18.8186C52.3649 20.0059 51.6759 20.6686 50.5459 20.6685L47.9 20.6684C46.3015 20.6683 45.3645 19.7293 45.3646 18.0449L45.3657 1.50469L48.5076 1.50489L48.5066 17.6033L50.8217 17.6035L50.8227 1.50504L53.9095 1.50523Z" fill="white"/>
<path d="M72.6796 8.32686L72.6798 4.46103L70.1442 4.46087L70.1439 9.56929L72.6796 8.32686ZM75.7111 10.4809L75.7106 18.0193C75.7105 19.8141 74.801 20.6701 72.8993 20.6699L67.1115 20.6696L67.1128 1.50607L73.1485 1.50645C74.7471 1.50655 75.7116 2.44546 75.7115 4.12986L75.7113 8.16138C75.7112 9.40397 75.3253 10.1495 74.3607 10.4808L75.7111 10.4809ZM72.679 17.6877L72.6794 11.53L70.1437 12.8L70.1434 17.6875L72.679 17.6877Z" fill="white"/>
<path d="M86.584 20.6708L83.4421 20.6706L83.4426 12.5524L81.1274 13.7396L81.127 20.6705L77.9851 20.6703L77.9861 4.13C77.9862 2.4456 78.9234 1.50682 80.5219 1.50692L84.0221 1.50714C85.6206 1.50724 86.5852 2.44615 86.5851 4.13055L86.584 20.6708ZM83.4428 9.18355L83.4431 4.54455L81.128 4.5444L81.1277 10.3155L83.4428 9.18355Z" fill="white"/>
<path d="M94.3702 9.23947L94.3705 4.54524L92.0554 4.54509L92.055 10.3991L94.3702 9.23947ZM97.512 11.0069L95.1968 12.1941L98.7792 20.6716L95.4995 20.6714L92.5234 13.5746L92.0548 13.8231L92.0544 20.6712L88.9125 20.671L88.9137 1.50745L94.9495 1.50784C96.548 1.50794 97.5125 2.44684 97.5124 4.13124L97.512 11.0069Z" fill="white"/>
<path d="M105.327 8.32893L105.327 4.4631L102.792 4.46294L102.791 9.57136L105.327 8.32893ZM108.359 10.483L108.358 18.0213C108.358 19.8162 107.449 20.6721 105.547 20.672L99.7591 20.6716L99.7603 1.50814L105.796 1.50852C107.395 1.50863 108.359 2.44753 108.359 4.13193L108.359 8.16345C108.359 9.40604 107.973 10.1516 107.008 10.4829L108.359 10.483ZM105.327 17.6898L105.327 11.5321L102.791 12.8021L102.791 17.6896L105.327 17.6898Z" fill="white"/>
<path d="M118.212 20.6728L110.633 20.6723L110.634 1.50883L118.213 1.50931L118.213 4.57437L113.776 4.57409L113.775 9.51683L118.213 7.28045L118.212 10.7045L113.775 12.9685L113.775 17.6075L118.212 17.6078L118.212 20.6728Z" fill="white"/>
<path d="M125.591 9.24145L125.592 4.54722L123.276 4.54708L123.276 10.4011L125.591 9.24145ZM128.733 11.0089L126.418 12.1961L130 20.6736L126.721 20.6734L123.744 13.5766L123.276 13.8251L123.275 20.6731L120.134 20.6729L120.135 1.50943L126.171 1.50982C127.769 1.50992 128.734 2.44883 128.733 4.13323L128.733 11.0089Z" fill="white"/>
<path d="M25.34 19.7762L25.3393 2.22848L30.1402 1.50372L32.9203 1.5039L32.9201 4.56896L28.4829 4.56867L28.4825 9.51142L32.92 7.27504L32.9197 10.6991L28.4823 12.9631L28.4823 20.4001L25.34 19.7762Z" fill="#8162FF"/>
<path d="M34.4913 4.12724C34.4914 2.44284 35.4286 1.50406 37.0271 1.50416L40.5273 1.50438C42.1258 1.50448 43.0904 2.44339 43.0902 4.12779L43.0902 4.59721L39.9206 6.2538L39.9207 4.54179L37.6332 4.54164L37.6329 9.37394L43.0901 6.55774L43.0894 18.0448C43.0893 19.7292 42.1246 20.668 40.5261 20.6679L37.0259 20.6677C35.4273 20.6676 34.4903 19.7287 34.4904 18.0443L34.4906 16.2494L37.6326 14.6204L37.6324 17.6303L39.9199 17.6304L39.9203 11.6107L34.4907 14.4546L34.4913 4.12724Z" fill="#8162FF"/>
<path d="M53.9095 1.50523L53.9085 17.6037L56.196 17.6038L56.197 1.50538L59.3665 1.50558L59.3654 17.9906C59.3653 19.8131 58.4833 20.669 56.6092 20.6689L54.1563 20.6688C53.0263 20.6687 52.3649 20.0059 52.365 18.8186C52.3649 20.0059 51.6759 20.6686 50.5459 20.6685L47.9 20.6684C46.3015 20.6683 45.3645 19.7293 45.3646 18.0449L45.3657 1.50469L48.5076 1.50489L48.5066 17.6033L50.8217 17.6035L50.8227 1.50504L53.9095 1.50523Z" fill="#8162FF"/>
<path fill-rule="evenodd" clip-rule="evenodd" d="M1.81656 4.93827C1.8165 5.76685 2.14596 6.56151 2.73244 7.14743C3.31892 7.73336 4.11439 8.06256 4.94385 8.06261C5.77331 8.06267 6.56882 7.73357 7.15537 7.14771C7.74193 6.56186 8.07148 5.76725 8.07153 4.93867C8.07159 4.1101 7.74213 3.31544 7.15565 2.72951C6.56917 2.14359 5.77371 1.81439 4.94424 1.81433C4.11478 1.81428 3.31927 2.14338 2.73272 2.72923C2.14616 3.31508 1.81661 4.1097 1.81656 4.93827ZM4.94373 9.87663C3.88532 9.87644 2.8549 9.53692 2.00409 8.90802C1.15328 8.27912 0.526999 7.39404 0.217387 6.383C-0.0922245 5.37196 -0.0688178 4.28835 0.284164 3.2916C0.637145 2.29484 1.30106 1.43758 2.17824 0.845918C3.05541 0.25426 4.09953 -0.0405458 5.15697 0.00487441C6.21441 0.0502947 7.22934 0.433543 8.05243 1.09823C8.87553 1.76292 9.46333 2.67396 9.72936 3.6973C9.99538 4.72064 9.92559 5.80226 9.53024 6.78301L11.4753 8.08117C11.461 8.12661 11.4475 8.1723 11.4349 8.21822L11.1241 9.32677L10.4118 9.8024L8.40625 8.46393C7.51436 9.33662 6.29158 9.87672 4.94373 9.87663ZM1.81579 17.062C1.81584 16.2334 2.14539 15.4388 2.73195 14.8529C3.3185 14.2671 4.11401 13.938 4.94347 13.938C5.77294 13.9381 6.5684 14.2673 7.15488 14.8532C7.74137 15.4391 8.07082 16.2338 8.07076 17.0624C8.07071 17.8909 7.74116 18.6855 7.1546 19.2714C6.56805 19.8572 5.77254 20.1863 4.94308 20.1863C4.11362 20.1862 3.31815 19.857 2.73167 19.2711C2.14519 18.6852 1.81574 17.8905 1.81579 17.062ZM4.94359 12.124C3.8861 12.124 2.8565 12.4628 2.00601 13.0906C1.15552 13.7184 0.528973 14.6021 0.218393 15.6118C-0.0921863 16.6216 -0.0704276 17.7043 0.280474 18.7008C0.631375 19.6973 1.29292 20.5551 2.16795 21.1483C3.04298 21.7414 4.08536 22.0387 5.142 21.9963C6.19864 21.954 7.21384 21.5743 8.03848 20.913C8.86313 20.2517 9.45375 19.3437 9.72361 18.3223C9.99347 17.3009 9.92833 16.22 9.53777 15.2384L30.1659 1.50056L28.2471 1.6586C25.5411 1.94286 22.9206 2.7709 20.5432 4.09292L14.3385 7.53916C14.1054 7.66917 13.9006 7.84406 13.7357 8.05372C13.5708 8.26337 13.4492 8.50361 13.3779 8.76054L12.8673 10.5866L8.42207 13.5553C7.49772 12.6374 6.24695 12.1227 4.94359 12.124ZM14.3138 14.4727L14.338 14.4868L20.5423 17.9339C22.9195 19.2562 25.5399 20.0846 28.2459 20.3692L27.9688 19.0071L25.3467 17.362L17.6755 12.2256L14.3138 14.4727Z" fill="#8162FF"/>
</svg>
